<svg width="31" height="30" viewBox="0 0 31 30" fill="none" xmlns="http://www.w3.org/2000/svg">
<g clip-path="url(#clip0_389_9318)">
<g clip-path="url(#clip1_389_9318)">
<path d="M15.7197 29.5C23.7279 29.5 30.2197 23.0081 30.2197 15C30.2197 6.99187 23.7279 0.5 15.7197 0.5C7.7116 0.5 1.21973 6.99187 1.21973 15C1.21973 23.0081 7.7116 29.5 15.7197 29.5Z" stroke="black"/>
<path d="M23.7079 10.5432C23.109 10.8081 22.474 10.9821 21.8238 11.0594C22.5091 10.6495 23.0221 10.0044 23.267 9.2443C22.6238 9.62708 21.9187 9.89534 21.1837 10.0404C20.69 9.51223 20.0356 9.16191 19.3223 9.04395C18.609 8.926 17.8767 9.04702 17.2392 9.3882C16.6018 9.72937 16.0949 10.2716 15.7974 10.9306C15.4999 11.5895 15.4285 12.3283 15.5942 13.0321C14.2898 12.9667 13.0138 12.6278 11.8489 12.0372C10.6841 11.4467 9.65648 10.6178 8.83277 9.60433C8.54121 10.1051 8.38799 10.6744 8.38881 11.2539C8.38881 12.3913 8.96769 13.3961 9.84777 13.9843C9.32695 13.968 8.81758 13.8273 8.36214 13.5741V13.6149C8.3623 14.3724 8.62442 15.1065 9.10405 15.6928C9.58369 16.2791 10.2513 16.6814 10.9937 16.8317C10.5103 16.9627 10.0033 16.982 9.51127 16.8881C9.7206 17.5402 10.1286 18.1104 10.6781 18.519C11.2276 18.9276 11.8912 19.1541 12.5758 19.1668C11.8954 19.7012 11.1162 20.0963 10.283 20.3294C9.44976 20.5625 8.57873 20.6291 7.71973 20.5253C9.21924 21.4897 10.9648 22.0017 12.7476 22C18.7819 22 22.0818 17.0011 22.0818 12.6658C22.0818 12.5246 22.0779 12.3818 22.0716 12.2422C22.7139 11.778 23.2683 11.2029 23.7086 10.544L23.7079 10.5432Z" fill="black"/>
</g>
</g>
<defs>
<clipPath id="clip0_389_9318">
<rect width="30" height="30" fill="white" transform="translate(0.719727)"/>
</clipPath>
<clipPath id="clip1_389_9318">
<rect width="30" height="30" fill="white" transform="translate(0.719727)"/>
</clipPath>
</defs>
</svg>
