<svg width="24" height="24" viewBox="0 0 24 24" fill="none" xmlns="http://www.w3.org/2000/svg">
<mask id="mask0_389_8730" style="mask-type:alpha" maskUnits="userSpaceOnUse" x="0" y="0" width="24" height="25">
<rect y="0.000366211" width="24" height="24" fill="#D9D9D9"/>
</mask>
<g mask="url(#mask0_389_8730)">
<path d="M12 22.0004C10.6167 22.0004 9.31667 21.7379 8.1 21.2129C6.88333 20.6879 5.825 19.9754 4.925 19.0754C4.025 18.1754 3.3125 17.117 2.7875 15.9004C2.2625 14.6837 2 13.3837 2 12.0004C2 10.617 2.2625 9.31703 2.7875 8.10037C3.3125 6.8837 4.025 5.82537 4.925 4.92537C5.825 4.02537 6.88333 3.31287 8.1 2.78787C9.31667 2.26287 10.6167 2.00037 12 2.00037C14.4333 2.00037 16.5625 2.76287 18.3875 4.28787C20.2125 5.81287 21.35 7.72537 21.8 10.0254H19.75C19.4333 8.8087 18.8625 7.7212 18.0375 6.76287C17.2125 5.80453 16.2 5.0837 15 4.60037V5.00037C15 5.55037 14.8042 6.0212 14.4125 6.41287C14.0208 6.80453 13.55 7.00037 13 7.00037H11V9.00037C11 9.2837 10.9042 9.5212 10.7125 9.71287C10.5208 9.90453 10.2833 10.0004 10 10.0004H8V12.0004H10V15.0004H9L4.2 10.2004C4.15 10.5004 4.10417 10.8004 4.0625 11.1004C4.02083 11.4004 4 11.7004 4 12.0004C4 14.1837 4.76667 16.0587 6.3 17.6254C7.83333 19.192 9.73333 19.9837 12 20.0004V22.0004ZM21.1 21.5004L17.9 18.3004C17.55 18.5004 17.175 18.667 16.775 18.8004C16.375 18.9337 15.95 19.0004 15.5 19.0004C14.25 19.0004 13.1875 18.5629 12.3125 17.6879C11.4375 16.8129 11 15.7504 11 14.5004C11 13.2504 11.4375 12.1879 12.3125 11.3129C13.1875 10.4379 14.25 10.0004 15.5 10.0004C16.75 10.0004 17.8125 10.4379 18.6875 11.3129C19.5625 12.1879 20 13.2504 20 14.5004C20 14.9504 19.9333 15.3754 19.8 15.7754C19.6667 16.1754 19.5 16.5504 19.3 16.9004L22.5 20.1004L21.1 21.5004ZM15.5 17.0004C16.2 17.0004 16.7917 16.7587 17.275 16.2754C17.7583 15.792 18 15.2004 18 14.5004C18 13.8004 17.7583 13.2087 17.275 12.7254C16.7917 12.242 16.2 12.0004 15.5 12.0004C14.8 12.0004 14.2083 12.242 13.725 12.7254C13.2417 13.2087 13 13.8004 13 14.5004C13 15.2004 13.2417 15.792 13.725 16.2754C14.2083 16.7587 14.8 17.0004 15.5 17.0004Z" fill="#D697ED"/>
</g>
</svg>
